<svg xmlns="http://www.w3.org/2000/svg" viewBox="0 0 600 600">
<defs>
<radialGradient id="h" cx="35%" cy="30%" r="70%">
<stop offset="0%" stop-color="#f6f7ff"/>
<stop offset="40%" stop-color="#8c8dff"/>
<stop offset="100%" stop-color="#05060d"/>
</radialGradient>
<linearGradient id="sea" x1="0%" y1="0%" x2="100%" y2="100%">
<stop offset="0%" stop-color="#6a7bff"/>
<stop offset="100%" stop-color="#1d1a3a"/>
</linearGradient>
</defs>
<circle cx="300" cy="300" r="300" fill="url(#h)"/>
<g fill="#0d182d" opacity="0.65">
<path d="M90 260l60-60 120-30 80 20 40 60-60 40-120 40-70-10z"/>
<path d="M300 310l90-70 90-10 70 50-20 70-100 60-120-40z"/>
<path d="M150 360l80-30 100 40-30 80-120 30-60-40z"/>
<path d="M360 410l120-50 70 60-30 80-120 50-70-40z"/>
<path d="M250 170l90-50 80 20 40 60-40 40-90 10-60-50z"/>
</g>
<g fill="#f2f4ff" opacity="0.07">
<path d="M60 120c80-50 180-80 270-80 90 0 190 30 270 80v20C520 70 200 70 60 160z"/>
<path d="M40 400c120 110 380 150 520 20v40C440 580 140 560 40 440z"/>
</g>
</svg>
