<svg width="498" height="404" viewBox="0 0 498 404" fill="none" xmlns="http://www.w3.org/2000/svg">
<path d="M390.033 266.073C415.676 251.342 440.196 235.695 460.798 214.649C470.296 204.945 478.699 194.424 484.032 181.841C492.419 162.05 486.427 144.163 468.13 132.738C452.215 122.801 434.624 118.001 416.217 116.528C399.48 115.188 382.644 115.096 365.858 114.307C364.179 114.228 362.547 113.133 360.894 112.51C362.29 111.616 363.584 110.203 365.098 109.905C398.649 103.314 431.966 102.366 464.296 115.672C480.584 122.376 493.069 133.155 496.916 151.338C499.532 163.705 496.717 175.412 491.658 186.775C479.915 213.153 460.799 233.124 437.516 249.506C394.336 279.887 346.958 302.011 297.626 320.182C262.937 332.959 227.58 343.47 191.073 349.756C160.317 355.053 129.352 358.29 98.1271 357.205C73.8832 356.362 50.1119 352.888 28.0767 341.498C1.59448 327.81 -7.13236 302.068 6.10156 275.39C11.0296 265.456 20.3366 253.872 29.0719 247.466C27.9509 249.699 27.5138 250.707 26.9621 251.648C22.3409 259.526 16.9944 267.067 13.2003 275.324C3.43041 296.584 9.692 315.333 29.6387 327.571C45.0369 337.018 62.0711 341.144 79.6947 343.284C123.94 348.657 167.42 342.704 210.594 333.69C273.768 320.501 333.099 296.95 390.033 266.073Z" fill="#F7F7F8"/>
<path d="M137.401 403.937C108.107 403.938 79.313 403.938 50.0176 403.938C49.9229 401.846 49.8282 399.758 49.6929 396.771C194.359 396.771 338.681 396.771 483.23 396.771C483.23 398.458 483.23 400.563 483.23 403.936C368.04 403.936 252.97 403.936 137.401 403.937Z" fill="#F2F2F2"/>
<path d="M282.974 214.498C272.922 211.252 263.607 211.03 253.437 213.789C212.356 224.937 171.082 235.388 129.766 245.644C121.543 247.685 112.827 247.738 104.556 248.683C102.638 243.474 103.813 241.778 108.175 240.74C158.505 228.756 208.801 216.626 259.045 204.284C264.575 202.925 269.648 202.937 275.094 204.254C320.843 215.322 366.627 226.247 412.4 237.22C413.19 237.41 413.965 237.667 415.61 238.142C409.925 242.396 405.773 246.42 397.827 244.274C359.778 233.998 321.545 224.408 282.974 214.498Z" fill="#F5F5F5"/>
<path d="M113.403 382.1C228.218 382.098 342.532 382.098 457.184 382.098C457.184 383.476 457.184 385.549 457.184 388.485C330.336 388.485 203.296 388.485 75.8691 388.485C75.8691 387.005 75.8691 384.94 75.8691 382.102C88.0983 382.102 100.501 382.102 113.403 382.1Z" fill="#F4F4F4"/>
<path d="M161.402 263.392C136.915 263.393 112.928 263.393 88.5596 263.393C88.5596 260.907 88.5596 258.333 88.5596 255.039C188.136 255.039 287.943 255.039 388.845 255.039C381.975 258.406 377.099 263.004 369.339 262.995C300.193 262.916 231.048 263.208 161.402 263.392Z" fill="#F3F3F3"/>
<path d="M358.251 162.248C355.826 164.541 350.436 161.94 348.979 158.415C345.877 150.911 343.448 142.95 339.217 136.122C324.061 111.659 303.167 94.5932 274.248 88.9037C264.785 87.0419 255.604 88.9101 246.915 92.5938C218.22 104.76 197.601 124.935 187.353 154.71C185.481 160.15 182.567 162.877 176.866 163.748C178.787 152.532 183.047 142.332 188.553 132.657C200.166 112.256 217.392 98.091 238.544 88.4342C241.76 86.9659 245.035 85.8566 244.642 81.1844C244.576 80.3972 246.691 78.8192 247.957 78.6205C262.009 76.4158 276.08 75.9506 290.713 78.8804C288.973 86.1693 294.807 87.3623 299.506 89.6574C330.212 104.655 349.625 128.855 358.251 162.248Z" fill="#F6F6F6"/>
<path d="M200.279 170.992C184.143 176.213 169.475 183.447 156.179 193.845C153.92 188.436 155.096 185.299 159.85 182.094C181.8 167.3 206.454 160.281 232.163 156.593C261.082 152.443 290.006 153.416 318.639 159.333C338.472 163.433 357.351 170.091 374.422 181.427C379.067 184.511 381.643 187.509 379.087 192.494C369.471 187.26 360.07 181.155 349.917 176.803C318.867 163.491 286.086 159.258 252.684 162.069C235.219 163.539 217.993 167.84 200.279 170.992Z" fill="#F4F4F4"/>
<path d="M433.292 363.3C433.292 366.769 433.292 369.745 433.292 373.112C427.997 373.112 422.961 373.112 417.545 373.112C417.545 346.118 417.545 319.072 417.545 291.627C422.408 291.627 427.464 291.627 433.292 291.627C433.292 315.335 433.292 339.071 433.292 363.3Z" fill="#F9F9F9"/>
<path d="M369.915 349.337C369.927 357.632 369.927 365.428 369.927 373.56C364.49 373.56 359.435 373.56 354.118 373.56C353.979 372.787 353.776 372.183 353.775 371.579C353.754 351.778 353.809 331.976 353.687 312.175C353.668 309.111 354.544 307.273 357.468 306.11C361.31 304.583 365 302.671 369.902 300.391C369.902 317.065 369.902 332.951 369.915 349.337Z" fill="#F6F6F6"/>
<path d="M268.041 33.5537C273.79 35.8835 279.242 37.9116 284.504 40.3492C285.754 40.9279 287.025 42.8461 287.092 44.207C287.161 45.6127 285.743 47.0742 285.037 48.5409C284.469 49.7219 283.578 50.9358 283.545 52.1545C283.388 57.9551 283.475 63.7624 283.475 70.2033C280.524 70.0597 277.81 69.9275 274.552 69.7688C274.552 62.2785 274.552 55.0625 274.552 47.5139C269.629 47.5139 265.242 47.5139 260.445 47.5139C260.445 54.6712 260.445 61.9206 260.445 69.6728C257.336 69.8668 254.594 70.0378 251.437 70.2348C251.437 62.9952 251.437 56.0804 251.437 49.1657C251.03 49.311 250.623 49.4562 250.217 49.6015C249.242 48.0361 247.91 46.5839 247.37 44.8806C246.389 41.7882 248.425 40.5734 251.081 39.6478C256.66 37.7036 262.148 35.4993 268.041 33.5537Z" fill="#F6F6F6"/>
<path d="M116.24 323.312C116.241 327.439 116.241 331.07 116.241 335.017C110.739 335.017 105.684 335.017 100.35 335.017C100.35 320.867 100.35 306.93 100.35 292.747C105.573 292.747 110.622 292.747 116.24 292.747C116.24 302.944 116.24 312.88 116.24 323.312Z" fill="#F7F7F7"/>
<path d="M306.109 330.009C306.142 344.753 306.142 359.059 306.142 373.756C301.01 373.756 295.963 373.756 290.299 373.756C290.299 360.997 290.297 348.245 290.308 335.494C290.308 335.003 290.323 334.135 290.521 334.075C295.691 332.523 300.885 331.054 306.109 330.009Z" fill="#F6F6F7"/>
<path d="M165.683 292.327C170.113 292.323 174.07 292.323 178.355 292.323C178.355 304.928 178.355 317.125 178.355 329.913C173.372 330.478 168.348 331.048 162.573 331.703C162.573 324.071 162.572 316.976 162.573 309.881C162.574 305.23 162.396 300.568 162.701 295.937C162.783 294.686 164.333 293.531 165.683 292.327Z" fill="#F7F7F8"/>
<path d="M73.3481 183.454C73.3654 190.998 73.3654 198.105 73.3654 205.245C65.0928 205.245 57.3477 205.245 49.4023 205.245C49.4023 197.183 49.4023 189.451 49.4023 181.34C57.0774 181.34 64.5206 181.31 71.9621 181.412C72.4256 181.418 72.8748 182.459 73.3481 183.454Z" fill="#F8F8F8"/>
<path d="M67.1738 247.374C66.3073 248.722 65.4703 250.325 64.5858 250.352C57.6526 250.561 50.7104 250.467 43.4023 250.467C43.4023 242.248 43.4023 234.524 43.4023 226.336C51.1894 226.336 59.0393 226.336 67.1813 226.336C67.1813 233.326 67.1813 240.113 67.1738 247.374Z" fill="#F6F6F6"/>
<path d="M31.3258 218.357C31.3253 221.485 31.3253 224.118 31.3253 227.095C23.2967 227.095 15.5729 227.095 7.40234 227.095C7.40234 219.399 7.40234 211.548 7.40234 203.336C15.1663 203.336 22.9803 203.336 31.3264 203.336C31.3264 208.328 31.3264 213.094 31.3258 218.357Z" fill="#FDFDFD"/>
<path d="M242.243 306.28C242.258 315.885 242.263 315.907 233.632 318.063C231.386 318.624 229.094 319.002 226.539 319.522C226.539 310.334 226.539 301.402 226.539 292.317C231.754 292.317 236.716 292.317 242.242 292.317C242.242 296.916 242.242 301.356 242.243 306.28Z" fill="#F8F8F8"/>
<path d="M226.371 371.122C226.366 364.657 226.366 358.673 226.366 352.251C231.461 350.991 236.399 349.769 241.885 348.412C241.885 357.236 241.885 365.444 241.885 374.328C237.493 374.328 232.909 374.442 228.343 374.206C227.644 374.17 227.03 372.512 226.371 371.122Z" fill="#F7F7F8"/>
<path d="M102.785 287.057C101.101 286.145 98.981 285.38 98.8 284.291C98.1578 280.431 98.1773 276.46 97.9331 272.311C104.958 272.311 111.529 272.311 118.507 272.311C118.063 277.174 117.644 281.766 117.162 287.056C112.428 287.056 107.833 287.056 102.785 287.057Z" fill="#F5F5F5"/>
<path d="M161.281 284.406C160.942 280.183 160.634 276.39 160.294 272.192C167.241 272.192 173.797 272.192 180.869 272.192C180.449 276.922 180.043 281.488 179.584 286.647C173.955 286.647 168.54 286.705 163.13 286.567C162.51 286.551 161.918 285.439 161.281 284.406Z" fill="#F9F9F9"/>
<path d="M332.279 195.313C332.281 199.258 332.281 202.708 332.281 206.069C331.689 206.186 331.52 206.267 331.365 206.244C321.552 204.839 321.559 204.839 321.579 195.175C321.591 189.24 321.581 183.305 321.581 176.611C324.871 177.351 327.492 177.66 329.859 178.605C330.861 179.006 331.859 180.704 331.946 181.88C332.264 186.178 332.198 190.504 332.279 195.313Z" fill="#EEEDEE"/>
<path d="M213.272 184.47C213.273 191.237 213.273 197.525 213.273 204.031C209.872 204.854 206.717 205.617 202.961 206.525C202.961 197.565 202.873 189.032 203.103 180.508C203.125 179.702 205.038 178.669 206.249 178.236C208.249 177.521 210.393 177.211 213.272 176.547C213.272 179.232 213.272 181.611 213.272 184.47Z" fill="#EEEDEE"/>
<path d="M238.245 271.545C240.357 271.545 241.992 271.545 244.422 271.545C243.997 276.602 243.607 281.259 243.193 286.186C237.2 286.186 231.467 286.186 224.973 286.186C224.67 281.607 224.362 276.95 224.005 271.545C228.927 271.545 233.348 271.545 238.245 271.545Z" fill="#F3F3F3"/>
<path d="M434.473 282.334C433.667 283.711 432.925 285.438 432.102 285.477C426.837 285.726 421.555 285.604 416.488 285.604C411.734 272.214 422.464 268.55 435.398 271.226C435.102 274.74 434.8 278.322 434.473 282.334Z" fill="#F7F7F7"/>
<path d="M288.248 273.536C288.735 272.533 289.23 271.558 289.741 271.549C295.819 271.443 301.899 271.481 308.569 271.481C308.151 276.632 307.77 281.323 307.375 286.193C301.329 286.193 295.571 286.193 289.027 286.193C288.77 282.097 288.517 278.056 288.248 273.536Z" fill="#F6F6F7"/>
<path d="M241.774 173.422C241.924 179.977 241.78 186.139 242.169 192.268C242.43 196.376 241.28 198.548 236.903 198.586C235.301 198.6 233.704 199.175 231.739 199.566C231.739 190.801 231.739 182.386 231.739 173.016C234.976 173.016 238.341 173.016 241.774 173.422Z" fill="#EEEEEE"/>
<path d="M359.476 209.864C359.336 211.424 359.202 212.54 359.067 213.676C358.522 213.676 358.185 213.723 357.866 213.669C349.165 212.182 349.136 212.18 349.172 203.487C349.194 198.008 349.314 192.528 349.407 187.049C349.415 186.561 349.551 186.074 349.626 185.599C349.974 185.504 350.328 185.275 350.574 185.359C359.524 188.443 359.517 188.447 359.476 197.962C359.46 201.782 359.48 205.602 359.476 209.864Z" fill="#F9F9F9"/>
<path d="M293.16 177.909C293.163 175.828 293.163 174.179 293.163 171.89C296.777 172.366 299.992 172.79 303.583 173.264C303.583 177.732 303.583 182.012 303.583 186.292C303.583 190.595 303.583 194.899 303.583 199.951C299.932 199.126 296.698 198.395 293.157 197.595C293.157 190.919 293.157 184.629 293.16 177.909Z" fill="#FBFBFB"/>
<path d="M273.33 190.87C272.597 191.876 271.866 192.903 271.148 192.894C268.369 192.858 265.595 192.492 262.384 192.211C262.384 185.281 262.384 178.078 262.384 170.563C265.882 170.563 269.275 170.563 273.337 170.563C273.337 177.228 273.337 183.822 273.33 190.87Z" fill="#F9F9F9"/>
<path d="M185.388 187.997C185.404 194.055 185.038 199.717 185.534 205.303C185.984 210.364 183.94 212.539 179.224 212.957C178.09 213.058 176.969 213.302 175.296 213.567C175.296 205.887 175.116 198.455 175.461 191.047C175.524 189.708 177.563 188.184 179.016 187.26C180.771 186.143 182.875 185.574 185.128 184.644C185.243 185.971 185.312 186.769 185.388 187.997Z" fill="#F6F6F7"/>
<path d="M169.826 363.12C172.861 362.728 175.476 362.387 178.643 361.974C178.643 366.213 178.643 370.096 178.643 374.385C173.73 374.385 168.553 374.385 163.083 374.385C163.083 370.956 163.083 367.708 163.083 363.879C165.259 363.635 167.333 363.403 169.826 363.12Z" fill="#F1F1F1"/>
<path d="M268.011 3.91022C269.306 12.4293 270.53 20.5552 271.816 29.0959C268.901 29.0959 266.022 29.0959 262.524 29.0959C263.949 19.606 265.355 10.2399 266.893 0C267.399 1.70114 267.669 2.60907 268.011 3.91022Z" fill="#EEEDEE"/>
<path d="M114.031 375.185C109.315 375.2 105.063 375.2 100.545 375.2C100.545 372.443 100.545 370.039 100.545 367.301C105.712 367.301 110.885 367.301 117.333 367.301C116.254 370.291 115.374 372.731 114.031 375.185Z" fill="#F6F6F7"/>
<path d="M302.744 291.424C304.01 291.91 304.858 292.393 305.706 292.876C305.151 293.581 304.74 294.627 304.016 294.933C299.773 296.731 295.457 298.355 290.65 300.24C290.65 297.246 290.65 294.603 290.65 291.422C294.509 291.422 298.417 291.422 302.744 291.424Z" fill="#EEEEEE"/>
</svg>
